<svg width="114" height="114" viewBox="0 0 114 114" fill="none" xmlns="http://www.w3.org/2000/svg">
<path fill-rule="evenodd" clip-rule="evenodd" d="M31.7869 18.4277C29.3457 17.6395 26.7467 17.4561 24.2172 17.8938L24.2016 17.8965C24.1246 17.9089 24.054 17.942 23.9971 17.9907C23.9403 18.0394 23.8996 18.1014 23.8779 18.1692C23.8563 18.2369 23.854 18.3088 23.8711 18.3774C23.8883 18.4462 23.9247 18.5103 23.9779 18.5622L23.9918 18.5758L35.6578 30.2582L35.677 30.2791C36.1608 30.8026 36.431 31.4892 36.431 32.2038C36.431 32.9185 36.1608 33.6051 35.677 34.1286L35.6548 34.1527L27.7705 41.9538L27.7475 41.9747C27.2207 42.4536 26.5342 42.7176 25.8239 42.7176C25.1136 42.7176 24.4272 42.4536 23.9003 41.9747L23.8767 41.9532L12.1722 30.3445C12.172 30.3443 12.1724 30.3447 12.1722 30.3445C12.1201 30.2932 12.053 30.2552 11.9788 30.2371C11.9042 30.219 11.8259 30.2216 11.7529 30.2443C11.6799 30.267 11.6161 30.3086 11.5676 30.3631C11.5197 30.417 11.4884 30.4815 11.4756 30.5494C11.0473 32.9539 11.1975 35.4247 11.9143 37.7611C12.6308 40.0965 13.8935 42.2323 15.6005 43.9941C17.4553 45.8703 19.7561 47.2561 22.2928 48.0234C24.8317 48.7913 27.5247 48.9148 30.1244 48.3823L30.8934 48.2248L40.9587 58.2078C41.5334 58.7779 41.5373 59.7059 40.9672 60.2806C40.3972 60.8554 39.4691 60.8592 38.8944 60.2891L29.9294 51.3974C27.098 51.8541 24.1949 51.6613 21.4441 50.8293C18.439 49.9203 15.7108 48.2772 13.5102 46.0494L13.5008 46.0398C11.4696 43.9452 9.96544 41.4033 9.11178 38.6209C8.25811 35.8384 8.07942 32.8949 8.59048 30.0306L8.59152 30.0247C8.70092 29.4256 8.97326 28.8689 9.37756 28.4145C9.78178 27.9602 10.3024 27.6255 10.8822 27.4451C11.462 27.2648 12.0802 27.2452 12.6702 27.3884C13.2602 27.5316 13.801 27.8325 14.2333 28.26L14.2349 28.2616L25.824 39.7559L33.4572 32.2032L21.9233 20.6531C21.4866 20.2244 21.176 19.6833 21.0273 19.0887C20.8776 18.4903 20.8981 17.8624 21.0862 17.2751C21.2743 16.6878 21.6222 16.1653 22.0897 15.7647C22.5549 15.3661 23.1206 15.1034 23.7243 15.0041C26.7193 14.487 29.7965 14.7046 32.6877 15.6381C35.5811 16.5724 38.2011 18.1956 40.3181 20.367C42.4351 22.5385 43.9848 25.1921 44.8305 28.0966C45.6007 30.7414 45.7655 33.5201 45.3174 36.2302L57.5731 48.3857C58.1478 48.9557 58.1516 49.8837 57.5816 50.4585C57.0115 51.0332 56.0835 51.037 55.5088 50.467L42.1346 37.2022L42.2994 36.4211C42.8241 33.934 42.7269 31.3575 42.016 28.9161C41.3051 26.4747 40.0019 24.242 38.2191 22.4134C36.4363 20.5848 34.2281 19.216 31.7869 18.4277Z" fill="#333333"/>
<path fill-rule="evenodd" clip-rule="evenodd" d="M68.7421 61.5268C69.3121 60.9521 70.2401 60.9483 70.8149 61.5183L94.2187 84.7308C96.2558 86.7484 97.4036 89.4885 97.4057 92.3491C97.4077 95.2096 96.2638 97.9513 94.2296 99.9718C92.1958 101.992 89.4387 103.126 86.5656 103.128C83.6925 103.13 80.9339 102 78.8972 99.9825L59.6178 80.8608C59.0431 80.2908 59.0393 79.3628 59.6093 78.788C60.1794 78.2133 61.1074 78.2095 61.6821 78.7795L80.96 97.8997C82.4448 99.3703 84.4602 100.198 86.5635 100.196C88.6669 100.195 90.6812 99.3645 92.1638 97.8919C93.646 96.4197 94.4757 94.4264 94.4743 92.3511C94.4728 90.2759 93.6402 88.2837 92.1559 86.8136L68.7506 63.5996C68.1758 63.0296 68.172 62.1016 68.7421 61.5268Z" fill="#333333"/>
<path fill-rule="evenodd" clip-rule="evenodd" d="M97.5652 17.4222L100.686 20.4839C100.771 20.5328 100.842 20.6021 100.892 20.6852C100.941 20.7683 100.969 20.8625 100.971 20.9589C100.974 21.0553 100.951 21.1507 100.906 21.2362C100.86 21.3217 100.794 21.3944 100.711 21.4476L89.2858 35.0635C89.227 35.1233 89.1564 35.1708 89.0784 35.2033C89.0004 35.2358 88.9166 35.2526 88.8318 35.2526C88.7471 35.2526 88.6631 35.2358 88.5851 35.2033C88.5417 35.1852 88.5006 35.1625 88.4625 35.1356C88.4322 35.1141 88.4038 35.09 88.3778 35.0635L87.495 34.1986L50.2667 72.64L46.4143 68.9606L83.7435 30.3709L82.8608 29.506C82.7997 29.4484 82.7512 29.3793 82.7181 29.3029C82.6849 29.2265 82.6678 29.1443 82.6678 29.0612C82.6678 28.9782 82.6849 28.896 82.7181 28.8196C82.7512 28.7431 82.7997 28.6741 82.8608 28.6164L96.7329 17.4222C96.848 17.3232 96.9959 17.2686 97.149 17.2686C97.3022 17.2686 97.4501 17.3232 97.5652 17.4222ZM94.9737 15.2843C95.5884 14.7742 96.3594 14.5 97.149 14.5C97.9585 14.5 98.7489 14.7882 99.3713 15.3239L99.4396 15.3827L102.478 18.3638C102.789 18.6107 103.057 18.9132 103.265 19.2599C103.56 19.7507 103.724 20.3106 103.739 20.8864C103.754 21.4628 103.619 22.031 103.35 22.5367C103.174 22.867 102.946 23.1624 102.676 23.413L91.3362 36.927L91.2594 37.0051C90.9394 37.3304 90.559 37.5858 90.1427 37.7591C89.7266 37.9325 89.2809 38.0211 88.8318 38.0211C88.4824 38.0211 88.1349 37.9675 87.8015 37.8618L50.3428 76.5411L42.4872 69.0383L80.0864 30.1695C79.9631 29.8147 79.8992 29.4402 79.8992 29.0612C79.8992 28.5974 79.9948 28.1404 80.1782 27.7177C80.3615 27.2951 80.6283 26.9166 80.9599 26.6035L81.0383 26.5295L94.9737 15.2843Z" fill="#333333"/>
<path d="M51.7738 57.0454L62.9129 68.0934C63.1942 68.3724 63.3523 68.7509 63.3523 69.1455C63.3523 69.5402 63.1942 69.9187 62.9128 70.1977L33.9911 98.8829C32.2327 100.627 29.8476 101.607 27.3608 101.607C24.8739 101.607 22.4889 100.627 20.7304 98.8829C18.9719 97.1388 17.984 94.7733 17.984 92.3067C17.984 89.8402 18.9719 87.4747 20.7304 85.7306L49.6521 57.0454C49.7914 56.9072 49.9568 56.7976 50.1388 56.7229C50.3208 56.6481 50.5159 56.6096 50.7129 56.6096C50.91 56.6096 51.1051 56.6481 51.2871 56.7229C51.4691 56.7976 51.6345 56.9072 51.7738 57.0454Z" fill="#007CC0"/>
<path fill-rule="evenodd" clip-rule="evenodd" d="M51.1957 57.6188C51.1323 57.556 51.057 57.5061 50.9742 57.4721C50.8914 57.438 50.8026 57.4205 50.7129 57.4205C50.6233 57.4205 50.5345 57.438 50.4517 57.4721C50.3689 57.5061 50.2936 57.556 50.2302 57.6188L21.3085 86.304C19.7034 87.896 18.8016 90.0553 18.8016 92.3067C18.8016 94.5582 19.7034 96.7174 21.3085 98.3095C22.9137 99.9015 25.0908 100.796 27.3608 100.796C29.6308 100.796 31.8078 99.9015 33.413 98.3095L62.3347 69.6243C62.4627 69.4973 62.5346 69.3251 62.5346 69.1455C62.5346 68.9659 62.4627 68.7937 62.3347 68.6668L51.1957 57.6188ZM51.6 55.9736C51.8812 56.0892 52.1367 56.2585 52.352 56.472L63.491 67.5199C63.9257 67.9511 64.1699 68.5358 64.1699 69.1455C64.1699 69.7553 63.9257 70.34 63.491 70.7711L34.5693 99.4563C32.6575 101.352 30.0645 102.418 27.3608 102.418C24.6571 102.418 22.0641 101.352 20.1522 99.4563C18.2404 97.5601 17.1664 94.9883 17.1664 92.3067C17.1664 89.6251 18.2404 87.0533 20.1522 85.1572L49.0739 56.472C49.2892 56.2585 49.5447 56.0892 49.8259 55.9737C50.1071 55.8581 50.4085 55.7987 50.7129 55.7987C51.0173 55.7987 51.3187 55.8581 51.6 55.9736Z" fill="#007CC0"/>
</svg>
