<svg width="114" height="114" viewBox="0 0 114 114" fill="none" xmlns="http://www.w3.org/2000/svg">
<g clip-path="url(#clip0_709_3365)">
<path fill-rule="evenodd" clip-rule="evenodd" d="M95.3262 16.7608C98.1933 17.2423 100.367 19.6089 100.605 22.5065L103.225 54.5352C103.384 56.4714 102.648 58.3735 101.227 59.6984L53.3036 104.387C50.0804 107.393 45.0308 107.217 42.0251 103.994L9.92074 69.5659C6.91501 66.3426 7.09134 61.2931 10.3146 58.2873L58.7315 13.1379C60.1765 11.7903 62.1664 11.1921 64.115 11.5193L95.3262 16.7608ZM97.6829 22.7456C97.5552 21.1854 96.3845 19.911 94.8407 19.6517L63.6295 14.4102C62.5803 14.234 61.5088 14.5562 60.7307 15.2818L12.3138 60.4312C10.2746 62.3328 10.1631 65.5275 12.0646 67.5667L44.169 101.994C46.0706 104.034 49.2652 104.145 51.3044 102.244L99.2276 57.5545C99.9926 56.8411 100.389 55.8168 100.304 54.7743L97.6829 22.7456Z" fill="#282828"/>
<circle cx="83.4062" cy="31.5319" r="3.05919" transform="rotate(47 83.4062 31.5319)" fill="#333333"/>
<path d="M68.3893 59.9397C67.7796 59.9134 67.3404 59.35 67.3585 58.74C67.3844 57.8718 67.2574 56.9811 66.9775 56.0678C66.6221 54.75 66.0646 53.6543 65.3052 52.7806C64.914 52.3306 64.4715 51.9018 63.9779 51.4943C63.5072 51.1133 62.9917 50.841 62.4312 50.6775C61.8973 50.491 61.3299 50.4265 60.7291 50.4839C60.1778 50.5448 59.6242 50.8169 59.0683 51.3002C58.5918 51.7144 58.2752 52.1523 58.1186 52.6138C57.985 53.1017 57.9602 53.6346 58.0441 54.2123C58.1511 54.8165 58.3288 55.4754 58.5772 56.189C58.8522 56.8796 59.1714 57.6478 59.535 58.4938C60.0458 59.723 60.5514 61.0265 61.0518 62.4041C61.5787 63.7588 61.8926 65.1359 61.9937 66.5353C62.0947 67.9348 61.9104 69.3268 61.4406 70.7112C60.9973 72.0726 60.0741 73.3632 58.671 74.5829C57.0561 75.9867 55.3883 76.9019 53.6677 77.3286C51.9966 77.7588 50.3399 77.8046 48.6976 77.466C47.0554 77.1273 45.4851 76.4705 43.9869 75.4955C42.4886 74.5205 41.1411 73.3446 39.9444 71.968C38.1954 69.956 36.8481 67.711 35.9024 65.233C35.108 63.0713 34.7374 60.9578 34.7907 58.8926C34.8046 58.352 35.2763 57.9498 35.816 57.9828L42.1237 58.3678C42.7191 58.4042 43.1468 58.9511 43.1116 59.5466C43.0467 60.6442 43.1573 61.7955 43.4433 63.0004C43.8769 64.622 44.577 65.9888 45.5436 67.1007C45.9808 67.6037 46.4595 68.0474 46.9797 68.4319C47.4998 68.8164 48.0286 69.0771 48.566 69.2142C49.1265 69.3777 49.6973 69.3927 50.2785 69.2593C50.8597 69.1259 51.4283 68.8176 51.9843 68.3343C52.5137 67.874 52.8487 67.3504 52.9892 66.7635C53.1297 66.1766 53.1269 65.5051 52.9809 64.7489C52.8844 63.9962 52.633 63.1457 52.2269 62.1973C51.8703 61.2524 51.4349 60.1901 50.9206 59.0103C50.4294 57.8571 50.0026 56.671 49.6402 55.4522C49.3009 54.2598 49.1365 53.0548 49.1471 51.8372C49.2071 50.6231 49.4899 49.4245 49.9953 48.2415C50.5502 47.0619 51.463 45.9198 52.7338 44.8152C54.2957 43.4574 55.9088 42.6129 57.573 42.2817C59.2372 41.9505 60.8755 41.9905 62.4878 42.4016C64.1001 42.8127 65.6289 43.5288 67.0743 44.5499C68.5461 45.5479 69.8573 46.7088 71.008 48.0325C72.3888 49.6209 73.5014 51.4889 74.3458 53.6366C75.0812 55.4799 75.4845 57.3447 75.5556 59.2309C75.5766 59.7897 75.1036 60.2288 74.5449 60.2048L68.3893 59.9397Z" fill="#007CC0"/>
<path d="M70.4191 41.9376C70.8359 41.5753 71.4675 41.6195 71.8298 42.0363L74.8327 45.4907C75.195 45.9075 75.1509 46.5391 74.734 46.9014L70.5249 50.5604L66.2099 45.5965L70.4191 41.9376Z" fill="#007CC0"/>
<path d="M39.736 68.6087L44.051 73.5725L39.8419 77.2315C39.4251 77.5938 38.7935 77.5496 38.4311 77.1328L35.4283 73.6784C35.0659 73.2616 35.1101 72.63 35.5269 72.2676L39.736 68.6087Z" fill="#007CC0"/>
</g>
<defs>
<clipPath id="clip0_709_3365">
<rect width="114" height="114" fill="white"/>
</clipPath>
</defs>
</svg>
