<svg width="114" height="114" viewBox="0 0 114 114" fill="none" xmlns="http://www.w3.org/2000/svg">
<path fill-rule="evenodd" clip-rule="evenodd" d="M27.0209 18.4029C20.5523 18.4029 15.3085 23.6467 15.3085 30.1153V87.4624C15.3085 93.931 20.5523 99.1748 27.0209 99.1748H86.979C93.4475 99.1748 98.6914 93.931 98.6914 87.4624V30.1153C98.6914 23.6467 93.4475 18.4029 86.979 18.4029H27.0209ZM12.3771 30.1153C12.3771 22.0277 18.9333 15.4714 27.0209 15.4714H86.979C95.0665 15.4714 101.623 22.0277 101.623 30.1153V87.4624C101.623 95.55 95.0665 102.106 86.979 102.106H27.0209C18.9333 102.106 12.3771 95.55 12.3771 87.4624V30.1153Z" fill="#333333"/>
<path d="M84.489 57.836H57.798C56.95 57.836 56.2626 58.5235 56.2626 59.3715V86.0624C56.2626 86.9104 56.95 87.5979 57.798 87.5979H84.489C85.337 87.5979 86.0245 86.9104 86.0245 86.0624V59.3715C86.0245 58.5235 85.337 57.836 84.489 57.836Z" fill="#007CC0"/>
<path fill-rule="evenodd" clip-rule="evenodd" d="M57.798 59.1389C57.6696 59.1389 57.5654 59.243 57.5654 59.3715V86.0624C57.5654 86.1909 57.6696 86.295 57.798 86.295H84.489C84.6175 86.295 84.7216 86.1909 84.7216 86.0624V59.3715C84.7216 59.243 84.6175 59.1389 84.489 59.1389H57.798ZM54.9597 59.3715C54.9597 57.8039 56.2305 56.5331 57.798 56.5331H84.489C86.0566 56.5331 87.3273 57.8039 87.3273 59.3715V86.0624C87.3273 87.63 86.0566 88.9007 84.489 88.9007H57.798C56.2305 88.9007 54.9597 87.63 54.9597 86.0624V59.3715Z" fill="#007CC0"/>
<path fill-rule="evenodd" clip-rule="evenodd" d="M36.1145 47.001V32.6952H39.0459V47.001H36.1145Z" fill="#333333"/>
<path fill-rule="evenodd" clip-rule="evenodd" d="M31.4858 77.1772L41.6016 67.0615L43.6744 69.1343L33.5586 79.2501L31.4858 77.1772Z" fill="#333333"/>
<path fill-rule="evenodd" clip-rule="evenodd" d="M30.427 38.5602L44.7329 38.5602L44.7329 41.4916L30.427 41.4916L30.427 38.5602Z" fill="#333333"/>
<path fill-rule="evenodd" clip-rule="evenodd" d="M33.4327 67.187L43.5485 77.3028L41.4756 79.3756L31.3599 69.2598L33.4327 67.187Z" fill="#333333"/>
<path fill-rule="evenodd" clip-rule="evenodd" d="M61.9515 38.5602H80.3203V41.4916H61.9515V38.5602Z" fill="#333333"/>
<path fill-rule="evenodd" clip-rule="evenodd" d="M63.9132 68.8728H78.2191V71.8043H63.9132V68.8728Z" fill="white"/>
<path fill-rule="evenodd" clip-rule="evenodd" d="M63.9132 73.7609H78.2191V76.6923H63.9132V73.7609Z" fill="white"/>
</svg>
