<svg width="114" height="114" viewBox="0 0 114 114" fill="none" xmlns="http://www.w3.org/2000/svg">
<path fill-rule="evenodd" clip-rule="evenodd" d="M56.9286 13.68C33.0036 13.68 13.6086 33.075 13.6086 57C13.6086 80.925 33.0036 100.32 56.9286 100.32C80.8535 100.32 100.249 80.925 100.249 57C100.249 33.075 80.8535 13.68 56.9286 13.68ZM10.6771 57C10.6771 31.456 31.3846 10.7486 56.9286 10.7486C82.4725 10.7486 103.18 31.456 103.18 57C103.18 82.544 82.4725 103.251 56.9286 103.251C31.3846 103.251 10.6771 82.544 10.6771 57Z" fill="#333333"/>
<path fill-rule="evenodd" clip-rule="evenodd" d="M87.6493 90.9779C88.2217 90.4055 89.1497 90.4055 89.7221 90.9779L102.751 104.006C103.323 104.579 103.323 105.507 102.751 106.079C102.178 106.652 101.25 106.652 100.678 106.079L87.6493 93.0507C87.0769 92.4783 87.0769 91.5503 87.6493 90.9779Z" fill="#333333"/>
<path d="M37.2114 46.8394L36.1702 45.4102C36.792 45.348 37.3849 45.2859 37.9779 45.2393C38.9468 45.1616 39.9302 45.0684 40.8991 45.0063C41.6367 44.9441 42.3742 44.882 43.1262 44.8664C45.4545 44.8198 47.7829 44.7732 50.1112 44.7888C52.1792 44.7888 51.4995 44.882 53.5675 44.9597C54.7389 45.0063 55.9103 45.0684 57.0817 45.1771C58.4845 45.3014 59.8873 45.4412 61.2467 45.8918C62.2445 46.218 63.1701 46.7462 64.0522 47.3987C66.0769 48.89 68.1159 50.3659 70.155 51.8262C70.343 51.966 70.6178 51.997 70.8492 52.0281C71.8471 52.1524 72.8594 52.2456 73.8572 52.3854C75.2889 52.6029 76.7206 52.8359 78.1379 53.0845C78.8031 53.1933 79.4683 53.3486 80.1191 53.504C81.0157 53.7214 81.6954 54.2962 82.1727 55.1662C83.0693 56.7819 83.6044 58.5218 83.749 60.4171C83.8068 61.1938 83.8502 61.9861 83.6767 62.7473C83.6333 62.9493 83.561 63.1357 83.5031 63.3221C83.3296 63.8037 83.0838 64.1766 82.6354 64.3941C82.2161 64.596 81.8401 64.8912 81.4496 65.1397C80.8422 65.5436 80.177 65.7145 79.4683 65.6524C78.832 65.6058 78.1957 65.6369 77.5594 65.6369C77.5016 65.6369 77.4293 65.7301 77.4148 65.8077C77.1256 66.7398 76.6339 67.5166 75.9542 68.138C74.2766 69.6604 71.7169 69.5362 70.1261 67.8739C69.5621 67.2836 69.1427 66.5845 68.8969 65.7611C68.8535 65.6369 68.8101 65.5903 68.6944 65.6058C68.651 65.6058 68.6221 65.6058 68.5787 65.6058C60.35 65.6058 54.8835 65.6058 46.6549 65.6058C46.4524 65.6058 46.3656 65.6679 46.2933 65.8854C45.6136 68.0448 43.7481 69.3963 41.7234 69.1944C39.7856 69.008 38.2237 67.5321 37.7176 65.3883C37.6597 65.1708 37.6452 64.9533 37.6163 64.7203C37.6019 64.5494 37.5585 64.4562 37.3849 64.4096C35.8375 64.0212 34.2901 63.6173 32.7427 63.2134C32.656 63.1823 32.5547 63.1046 32.5114 63.0114C32.1643 62.2813 31.8317 61.5356 31.716 60.6967C31.6292 60.0442 31.7449 59.4228 31.8606 58.8014C32.0341 57.9315 32.2366 57.077 32.3667 56.2071C32.439 55.7255 32.3957 55.2128 32.3957 54.7157C32.3957 54.405 32.3667 54.0788 32.3812 53.768C32.3812 53.4418 32.3812 53.1 32.4246 52.7893C32.468 52.432 32.6415 52.1213 32.8729 51.8572C33.9431 50.63 35.0132 49.4182 36.0834 48.191C36.4594 47.756 36.8354 47.321 37.2114 46.8705V46.8394Z" fill="#007CC0"/>
</svg>
